# xmcd
#
# Track frame offsets: 
#        150
#        29769
#        51799
#        72342
#        98071
#        118499
#        136999
#        163506
#        194237
#        244732
#
# Disc length: 3563 seconds
#
# Revision: 0
# Processed by: cddbd v1.5.1PL2 Copyright (c) Steve Scherf et al.
# Submitted via: ExactAudioCopy v0.95a5
#
DISCID=990de90a
DTITLE=Van Morrison - Pure (Featuring Chet Baker)
DYEAR=1974
DGENRE=Blues
TTITLE0=It's Not the Twilight Zone
TTITLE1=I Like It Like That
TTITLE2=T for Texas
TTITLE3=Bulbs
TTITLE4=Buffy Flow
TTITLE5=Heathrow Shuffle
TTITLE6=Naked in the Jungle
TTITLE7=Street Choir
TTITLE8=Pure
TTITLE9=Since I Fell for You (Welch)
EXTD=
EXTT0=
EXTT1=
EXTT2=
EXTT3=
EXTT4=
EXTT5=
EXTT6=
EXTT7=
EXTT8=
EXTT9=
PLAYORDER=
